{
  "accessors": [
    {
      "bufferView": 2,
      "componentType": 5126,
      "count": 28240,
      "max": [
        11.676520347595215,
        6.6674199104309082,
        0.70270001888275146
      ],
      "min": [
        -0.35872000455856323,
        0.78372997045516968,
        -6.661369800567627
      ],
      "type": "VEC3"
    },
    {
      "bufferView": 2,
      "byteOffset": 338880,
      "componentType": 5126,
      "count": 28240,
      "max": [
        0.99999052286148071,
        0.99999803304672241,
        0.99989229440689087
      ],
      "min": [
        -0.99997347593307495,
        -0.99999803304672241,
        -0.99998575448989868
      ],
      "type": "VEC3"
    },
    {
      "bufferView": 3,
      "componentType": 5126,
      "count": 28240,
      "max": [
        0.99990361928939819,
        0.99994826316833496,
        0.99951958656311035,
        1
      ],
      "min": [
        -0.9997485876083374,
        -1,
        -0.99908155202865601,
        -1
      ],
      "type": "VEC4"
    },
    {
      "bufferView": 1,
      "componentType": 5126,
      "count": 28240,
      "max": [
        0.99984002113342285,
        0.94455999135971069
      ],
      "min": [
        0.00015999999595806003,
        0.00015999999595806003
      ],
      "type": "VEC2"
    },
    {
      "bufferView": 0,
      "componentType": 5125,
      "count": 153600,
      "max": [
        28239
      ],
      "min": [
        0
      ],
      "type": "SCALAR"
    },
    {
      "bufferView": 2,
      "byteOffset": 677760,
      "componentType": 5126,
      "count": 10917,
      "max": [
        3.8234100341796875,
        4.1067900657653809,
        -0.31657999753952026
      ],
      "min": [
        -3.8234100341796875,
        -4.1067900657653809,
        -2.3407199382781982
      ],
      "type": "VEC3"
    },
    {
      "bufferView": 2,
      "byteOffset": 808764,
      "componentType": 5126,
      "count": 10917,
      "max": [
        0.99730473756790161,
        0.99999803304672241,
        1
      ],
      "min": [
        -0.99730473756790161,
        -0.99999803304672241,
        -1
      ],
      "type": "VEC3"
    },
    {
      "bufferView": 3,
      "byteOffset": 451840,
      "componentType": 5126,
      "count": 10917,
      "max": [
        1,
        1,
        0.99729788303375244,
        1
      ],
      "min": [
        -0.99972009658813477,
        -0.99885880947113037,
        -0.99730247259140015,
        -1
      ],
      "type": "VEC4"
    },
    {
      "bufferView": 1,
      "byteOffset": 225920,
      "componentType": 5126,
      "count": 10917,
      "max": [
        0.99981999397277832,
        0.85276997089385986
      ],
      "min": [
        0.00016999999934341758,
        0.00016999999934341758
      ],
      "type": "VEC2"
    },
    {
      "bufferView": 0,
      "byteOffset": 614400,
      "componentType": 5125,
      "count": 62640,
      "max": [
        10916
      ],
      "min": [
        0
      ],
      "type": "SCALAR"
    },
    {
      "bufferView": 2,
      "byteOffset": 939768,
      "componentType": 5126,
      "count": 7166,
      "max": [
        11.651439666748047,
        7.4768500328063965,
        0.62843000888824463
      ],
      "min": [
        -1.1181099414825439,
        -0.28575998544692993,
        -8.8617000579833984
      ],
      "type": "VEC3"
    },
    {
      "bufferView": 2,
      "byteOffset": 1025760,
      "componentType": 5126,
      "count": 7166,
      "max": [
        0.99974095821380615,
        1,
        0.99998492002487183
      ],
      "min": [
        -0.99996703863143921,
        -1,
        -0.9999159574508667
      ],
      "type": "VEC3"
    },
    {
      "bufferView": 1,
      "byteOffset": 313256,
      "componentType": 5126,
      "count": 7166,
      "max": [
        0,
        0
      ],
      "min": [
        0,
        0
      ],
      "type": "VEC2"
    },
    {
      "bufferView": 0,
      "byteOffset": 864960,
      "componentType": 5125,
      "count": 43008,
      "max": [
        7165
      ],
      "min": [
        0
      ],
      "type": "SCALAR"
    },
    {
      "bufferView": 2,
      "byteOffset": 1111752,
      "componentType": 5126,
      "count": 585,
      "max": [
        1.8522100448608398,
        2.1813700199127197,
        -0.96447998285293579
      ],
      "min": [
        -1.8522100448608398,
        -2.1813700199127197,
        -1.4122600555419922
      ],
      "type": "VEC3"
    },
    {
      "bufferView": 2,
      "byteOffset": 1118772,
      "componentType": 5126,
      "count": 585,
      "max": [
        0.99989813566207886,
        0.99999982118606567,
        1
      ],
      "min": [
        -0.99989813566207886,
        -0.99999982118606567,
        -0.14374363422393799
      ],
      "type": "VEC3"
    },
    {
      "bufferView": 3,
      "byteOffset": 626512,
      "componentType": 5126,
      "count": 585,
      "max": [
        0.5803905725479126,
        1,
        0.99999606609344482,
        1
      ],
      "min": [
        -0.58038824796676636,
        0.00066995760425925255,
        -0.99999642372131348,
        1
      ],
      "type": "VEC4"
    },
    {
      "bufferView": 1,
      "byteOffset": 370584,
      "componentType": 5126,
      "count": 585,
      "max": [
        0.40575999021530151,
        0.35745999217033386
      ],
      "min": [
        0.15439000725746155,
        0.14541999995708466
      ],
      "type": "VEC2"
    },
    {
      "bufferView": 0,
      "byteOffset": 1036992,
      "componentType": 5125,
      "count": 3024,
      "max": [
        584
      ],
      "min": [
        0
      ],
      "type": "SCALAR"
    },
    {
      "bufferView": 2,
      "byteOffset": 1125792,
      "componentType": 5126,
      "count": 585,
      "max": [
        1.8522100448608398,
        2.1813700199127197,
        -0.96447998285293579
      ],
      "min": [
        -1.8522100448608398,
        -2.1813700199127197,
        -1.4122600555419922
      ],
      "type": "VEC3"
    },
    {
      "bufferView": 2,
      "byteOffset": 1132812,
      "componentType": 5126,
      "count": 585,
      "max": [
        0.99989813566207886,
        0.99999982118606567,
        1
      ],
      "min": [
        -0.99989813566207886,
        -0.99999982118606567,
        -0.14374363422393799
      ],
      "type": "VEC3"
    },
    {
      "bufferView": 3,
      "byteOffset": 635872,
      "componentType": 5126,
      "count": 585,
      "max": [
        0.5803905725479126,
        1,
        0.99999606609344482,
        1
      ],
      "min": [
        -0.58038824796676636,
        0.00066995760425925255,
        -0.99999642372131348,
        1
      ],
      "type": "VEC4"
    },
    {
      "bufferView": 1,
      "byteOffset": 375264,
      "componentType": 5126,
      "count": 585,
      "max": [
        0.40575999021530151,
        0.35745999217033386
      ],
      "min": [
        0.15439000725746155,
        0.14541999995708466
      ],
      "type": "VEC2"
    },
    {
      "bufferView": 0,
      "byteOffset": 1049088,
      "componentType": 5125,
      "count": 3024,
      "max": [
        584
      ],
      "min": [
        0
      ],
      "type": "SCALAR"
    },
    {
      "bufferView": 2,
      "byteOffset": 1139832,
      "componentType": 5126,
      "count": 10917,
      "max": [
        3.8234100341796875,
        4.1067900657653809,
        -0.31657999753952026
      ],
      "min": [
        -3.8234100341796875,
        -4.1067900657653809,
        -2.3407199382781982
      ],
      "type": "VEC3"
    },
    {
      "bufferView": 2,
      "byteOffset": 1270836,
      "componentType": 5126,
      "count": 10917,
      "max": [
        0.99730473756790161,
        0.99999803304672241,
        1
      ],
      "min": [
        -0.99730473756790161,
        -0.99999803304672241,
        -1
      ],
      "type": "VEC3"
    },
    {
      "bufferView": 3,
      "byteOffset": 645232,
      "componentType": 5126,
      "count": 10917,
      "max": [
        1,
        1,
        0.99729788303375244,
        1
      ],
      "min": [
        -0.99972009658813477,
        -0.99885880947113037,
        -0.99730247259140015,
        -1
      ],
      "type": "VEC4"
    },
    {
      "bufferView": 1,
      "byteOffset": 379944,
      "componentType": 5126,
      "count": 10917,
      "max": [
        0.99981999397277832,
        0.85276997089385986
      ],
      "min": [
        0.00016999999934341758,
        0.00016999999934341758
      ],
      "type": "VEC2"
    },
    {
      "bufferView": 0,
      "byteOffset": 1061184,
      "componentType": 5125,
      "count": 62640,
      "max": [
        10916
      ],
      "min": [
        0
      ],
      "type": "SCALAR"
    }
  ],
  "asset": {
    "extras": {
      "author": "Mehmet Kerem Etes (https://sketchfab.com/keremetes)",
      "license": "CC-BY-4.0 (http://creativecommons.org/licenses/by/4.0/)",
      "source": "https://sketchfab.com/models/6e4b8c413bd44fc4afeed9d2c7fba3f0",
      "title": "Barcelona Chair"
    },
    "generator": "Sketchfab-3.32.5",
    "version": "2.0"
  },
  "bufferViews": [
    {
      "buffer": 0,
      "byteLength": 1311744,
      "byteOffset": 0,
      "name": "floatBufferViews",
      "target": 34963
    },
    {
      "buffer": 0,
      "byteLength": 467280,
      "byteOffset": 1311744,
      "byteStride": 8,
      "name": "floatBufferViews",
      "target": 34962
    },
    {
      "buffer": 0,
      "byteLength": 1401840,
      "byteOffset": 1779024,
      "byteStride": 12,
      "name": "floatBufferViews",
      "target": 34962
    },
    {
      "buffer": 0,
      "byteLength": 819904,
      "byteOffset": 3180864,
      "byteStride": 16,
      "name": "floatBufferViews",
      "target": 34962
    }
  ],
  "buffers": [
    {
      "byteLength": 4000768,
      "uri": "scene.bin"
    }
  ],
  "images": [
    {
      "uri": "textures/Material_baseColor.png"
    },
    {
      "uri": "textures/Material_normal.png"
    },
    {
      "uri": "textures/Material.003_baseColor.png"
    },
    {
      "uri": "textures/Material.004_baseColor.png"
    }
  ],
  "materials": [
    {
      "doubleSided": true,
      "name": "Material",
      "normalTexture": {
        "index": 1,
        "scale": 0.58708079270000002,
        "texCoord": 0
      },
      "pbrMetallicRoughness": {
        "baseColorFactor": [
          1,
          1,
          1,
          1
        ],
        "baseColorTexture": {
          "index": 0,
          "texCoord": 0
        },
        "metallicFactor": 1,
        "roughnessFactor": 0.37633384150000004
      }
    },
    {
      "doubleSided": true,
      "name": "Material.001",
      "pbrMetallicRoughness": {
        "baseColorFactor": [
          0.1790150717,
          0.1790150717,
          0.1790150717,
          1
        ],
        "metallicFactor": 1,
        "roughnessFactor": 0.27877286590000006
      }
    },
    {
      "doubleSided": true,
      "name": "Material.003",
      "pbrMetallicRoughness": {
        "baseColorFactor": [
          1,
          1,
          1,
          1
        ],
        "baseColorTexture": {
          "index": 2,
          "texCoord": 0
        },
        "metallicFactor": 1,
        "roughnessFactor": 0
      }
    },
    {
      "doubleSided": true,
      "name": "Material.004",
      "pbrMetallicRoughness": {
        "baseColorFactor": [
          1,
          1,
          1,
          1
        ],
        "baseColorTexture": {
          "index": 3,
          "texCoord": 0
        },
        "metallicFactor": 0.12976371950000001,
        "roughnessFactor": 0.83098323169999999
      }
    }
  ],
  "meshes": [
    {
      "name": "Cube.001_0",
      "primitives": [
        {
          "attributes": {
            "NORMAL": 1,
            "POSITION": 0,
            "TANGENT": 2,
            "TEXCOORD_0": 3
          },
          "indices": 4,
          "material": 3,
          "mode": 4
        }
      ]
    },
    {
      "name": "Plane_0",
      "primitives": [
        {
          "attributes": {
            "NORMAL": 6,
            "POSITION": 5,
            "TANGENT": 7,
            "TEXCOORD_0": 8
          },
          "indices": 9,
          "material": 0,
          "mode": 4
        }
      ]
    },
    {
      "name": "Cube_0",
      "primitives": [
        {
          "attributes": {
            "NORMAL": 11,
            "POSITION": 10,
            "TEXCOORD_0": 12
          },
          "indices": 13,
          "material": 2,
          "mode": 4
        }
      ]
    },
    {
      "name": "Plane.001_0",
      "primitives": [
        {
          "attributes": {
            "NORMAL": 15,
            "POSITION": 14,
            "TANGENT": 16,
            "TEXCOORD_0": 17
          },
          "indices": 18,
          "material": 1,
          "mode": 4
        }
      ]
    },
    {
      "name": "Plane.003_0",
      "primitives": [
        {
          "attributes": {
            "NORMAL": 20,
            "POSITION": 19,
            "TANGENT": 21,
            "TEXCOORD_0": 22
          },
          "indices": 23,
          "material": 1,
          "mode": 4
        }
      ]
    },
    {
      "name": "Plane.004_0",
      "primitives": [
        {
          "attributes": {
            "NORMAL": 25,
            "POSITION": 24,
            "TANGENT": 26,
            "TEXCOORD_0": 27
          },
          "indices": 28,
          "material": 0,
          "mode": 4
        }
      ]
    }
  ],
  "nodes": [
    {
      "children": [
        1
      ],
      "name": "RootNode (gltf orientation matrix)",
      "rotation": [
        -0.70710678118654746,
        -0,
        -0,
        0.70710678118654757
      ]
    },
    {
      "children": [
        2
      ],
      "name": "RootNode (model correction matrix)"
    },
    {
      "children": [
        3,
        5,
        7,
        9,
        11,
        13
      ],
      "name": "Root"
    },
    {
      "children": [
        4
      ],
      "matrix": [
        1,
        0,
        0,
        0,
        0,
        1,
        0,
        0,
        0,
        0,
        1,
        0,
        -8.0578699999999994,
        -3.5955399999999997,
        4.9539299999999997,
        1
      ],
      "name": "Cube.001"
    },
    {
      "mesh": 0,
      "name": "Cube.001_0"
    },
    {
      "children": [
        6
      ],
      "matrix": [
        1,
        0,
        0,
        0,
        0,
        1,
        0,
        0,
        0,
        0,
        1,
        0,
        0,
        0,
        0.73348000000000002,
        1
      ],
      "name": "Plane"
    },
    {
      "mesh": 1,
      "name": "Plane_0"
    },
    {
      "children": [
        8
      ],
      "matrix": [
        1,
        0,
        0,
        0,
        0,
        1,
        0,
        0,
        0,
        0,
        1,
        0,
        -8.0578699999999994,
        -3.5955399999999997,
        4.9539299999999997,
        1
      ],
      "name": "Cube"
    },
    {
      "mesh": 2,
      "name": "Cube_0"
    },
    {
      "children": [
        10
      ],
      "matrix": [
        1,
        0,
        0,
        0,
        0,
        1,
        0,
        0,
        0,
        0,
        1,
        0,
        0,
        0,
        0.73348000000000002,
        1
      ],
      "name": "Plane.001"
    },
    {
      "mesh": 3,
      "name": "Plane.001_0"
    },
    {
      "children": [
        12
      ],
      "matrix": [
        0.53482000000000007,
        0,
        -0.84496000000000004,
        0,
        -0,
        1,
        0,
        0,
        0.84496000000000004,
        0,
        0.53482000000000007,
        0,
        -5.0313100000000004,
        -0,
        3.4724699999999995,
        1
      ],
      "name": "Plane.003"
    },
    {
      "mesh": 4,
      "name": "Plane.003_0"
    },
    {
      "children": [
        14
      ],
      "matrix": [
        0.53482000000000007,
        0,
        -0.84496000000000004,
        0,
        -0,
        1,
        0,
        0,
        0.84496000000000004,
        0,
        0.53482000000000007,
        0,
        -5.0313100000000004,
        -0,
        3.4724699999999995,
        1
      ],
      "name": "Plane.004"
    },
    {
      "mesh": 5,
      "name": "Plane.004_0"
    }
  ],
  "samplers": [
    {
      "magFilter": 9729,
      "minFilter": 9987,
      "wrapS": 10497,
      "wrapT": 10497
    }
  ],
  "scene": 0,
  "scenes": [
    {
      "name": "OSG_Scene",
      "nodes": [
        0
      ]
    }
  ],
  "textures": [
    {
      "sampler": 0,
      "source": 0
    },
    {
      "sampler": 0,
      "source": 1
    },
    {
      "sampler": 0,
      "source": 2
    },
    {
      "sampler": 0,
      "source": 3
    }
  ]
}

