{
  "accessors": [
    {
      "bufferView": 2,
      "componentType": 5126,
      "count": 1495,
      "max": [
        1,
        1,
        1
      ],
      "min": [
        -1,
        -1,
        -1.4389200210571289
      ],
      "type": "VEC3"
    },
    {
      "bufferView": 2,
      "byteOffset": 17940,
      "componentType": 5126,
      "count": 1495,
      "max": [
        1,
        1,
        1
      ],
      "min": [
        -1,
        -1,
        -1
      ],
      "type": "VEC3"
    },
    {
      "bufferView": 3,
      "componentType": 5126,
      "count": 1495,
      "max": [
        1,
        0.11341515928506851,
        0.99786877632141113,
        1
      ],
      "min": [
        -0.05784943699836731,
        -0.014317699708044529,
        -1,
        -1
      ],
      "type": "VEC4"
    },
    {
      "bufferView": 1,
      "componentType": 5126,
      "count": 1495,
      "max": [
        0.96974998712539673,
        0.98979997634887695
      ],
      "min": [
        0,
        0
      ],
      "type": "VEC2"
    },
    {
      "bufferView": 0,
      "componentType": 5125,
      "count": 4086,
      "max": [
        1494
      ],
      "min": [
        0
      ],
      "type": "SCALAR"
    },
    {
      "bufferView": 2,
      "byteOffset": 35880,
      "componentType": 5126,
      "count": 4,
      "max": [
        0.7940400242805481,
        -0.16280999779701233,
        -1.171779990196228
      ],
      "min": [
        0.67024999856948853,
        -0.18558000028133392,
        -1.171779990196228
      ],
      "type": "VEC3"
    },
    {
      "bufferView": 2,
      "byteOffset": 35928,
      "componentType": 5126,
      "count": 4,
      "max": [
        0,
        -0,
        -1
      ],
      "min": [
        0,
        -0,
        -1
      ],
      "type": "VEC3"
    },
    {
      "bufferView": 3,
      "byteOffset": 23920,
      "componentType": 5126,
      "count": 4,
      "max": [
        1,
        -6.7137887526769191e-05,
        0,
        -1
      ],
      "min": [
        1,
        -6.7267654230818152e-05,
        0,
        -1
      ],
      "type": "VEC4"
    },
    {
      "bufferView": 1,
      "byteOffset": 11960,
      "componentType": 5126,
      "count": 4,
      "max": [
        0.89889997243881226,
        0.16234000027179718
      ],
      "min": [
        0.83618998527526855,
        0.14316000044345856
      ],
      "type": "VEC2"
    },
    {
      "bufferView": 0,
      "byteOffset": 16344,
      "componentType": 5125,
      "count": 6,
      "max": [
        3
      ],
      "min": [
        0
      ],
      "type": "SCALAR"
    },
    {
      "bufferView": 2,
      "byteOffset": 35976,
      "componentType": 5126,
      "count": 90,
      "max": [
        0.70503997802734375,
        -0.35394999384880066,
        -0.87651002407073975
      ],
      "min": [
        -0.33070001006126404,
        -0.98400002717971802,
        -1.2311199903488159
      ],
      "type": "VEC3"
    },
    {
      "bufferView": 2,
      "byteOffset": 37056,
      "componentType": 5126,
      "count": 90,
      "max": [
        1,
        1,
        -0
      ],
      "min": [
        -1,
        -1,
        -1
      ],
      "type": "VEC3"
    },
    {
      "bufferView": 3,
      "byteOffset": 23984,
      "componentType": 5126,
      "count": 90,
      "max": [
        0,
        0,
        0,
        1
      ],
      "min": [
        0,
        0,
        0,
        1
      ],
      "type": "VEC4"
    },
    {
      "bufferView": 1,
      "byteOffset": 11992,
      "componentType": 5126,
      "count": 90,
      "max": [
        0,
        0
      ],
      "min": [
        0,
        0
      ],
      "type": "VEC2"
    },
    {
      "bufferView": 0,
      "byteOffset": 16368,
      "componentType": 5125,
      "count": 216,
      "max": [
        89
      ],
      "min": [
        0
      ],
      "type": "SCALAR"
    },
    {
      "bufferView": 2,
      "byteOffset": 38136,
      "componentType": 5126,
      "count": 4,
      "max": [
        -0.82125997543334961,
        -0.70493000745773315,
        -1.0362999439239502
      ],
      "min": [
        -0.91553997993469238,
        -0.87252002954483032,
        -1.0362999439239502
      ],
      "type": "VEC3"
    },
    {
      "bufferView": 2,
      "byteOffset": 38184,
      "componentType": 5126,
      "count": 4,
      "max": [
        0,
        0,
        -1
      ],
      "min": [
        0,
        0,
        -1
      ],
      "type": "VEC3"
    },
    {
      "bufferView": 3,
      "byteOffset": 25424,
      "componentType": 5126,
      "count": 4,
      "max": [
        1,
        0,
        0,
        -1
      ],
      "min": [
        1,
        0,
        0,
        -1
      ],
      "type": "VEC4"
    },
    {
      "bufferView": 1,
      "byteOffset": 12712,
      "componentType": 5126,
      "count": 4,
      "max": [
        0.95445001125335693,
        0.97386002540588379
      ],
      "min": [
        0.045549999922513962,
        0.052480001002550125
      ],
      "type": "VEC2"
    },
    {
      "bufferView": 0,
      "byteOffset": 17232,
      "componentType": 5125,
      "count": 6,
      "max": [
        3
      ],
      "min": [
        0
      ],
      "type": "SCALAR"
    },
    {
      "bufferView": 2,
      "byteOffset": 38232,
      "componentType": 5126,
      "count": 48,
      "max": [
        0.67962998151779175,
        1.0068700313568115,
        0.84754997491836548
      ],
      "min": [
        -0.67700999975204468,
        0.96211999654769897,
        -1.4742000102996826
      ],
      "type": "VEC3"
    },
    {
      "bufferView": 2,
      "byteOffset": 38808,
      "componentType": 5126,
      "count": 48,
      "max": [
        1,
        0.99985009431838989,
        0.80078411102294922
      ],
      "min": [
        -1,
        -0.99991154670715332,
        -0.0677800253033638
      ],
      "type": "VEC3"
    },
    {
      "bufferView": 3,
      "byteOffset": 25488,
      "componentType": 5126,
      "count": 48,
      "max": [
        0,
        0,
        0,
        1
      ],
      "min": [
        0,
        0,
        0,
        1
      ],
      "type": "VEC4"
    },
    {
      "bufferView": 1,
      "byteOffset": 12744,
      "componentType": 5126,
      "count": 48,
      "max": [
        0,
        0
      ],
      "min": [
        0,
        0
      ],
      "type": "VEC2"
    },
    {
      "bufferView": 0,
      "byteOffset": 17256,
      "componentType": 5125,
      "count": 72,
      "max": [
        47
      ],
      "min": [
        0
      ],
      "type": "SCALAR"
    },
    {
      "bufferView": 2,
      "byteOffset": 39384,
      "componentType": 5126,
      "count": 1172,
      "max": [
        0.93314999341964722,
        0.76071000099182129,
        -1.002519965171814
      ],
      "min": [
        -0.91377002000808716,
        -0.2605699896812439,
        -1.4361799955368042
      ],
      "type": "VEC3"
    },
    {
      "bufferView": 2,
      "byteOffset": 53448,
      "componentType": 5126,
      "count": 1172,
      "max": [
        1,
        1,
        0
      ],
      "min": [
        -1,
        -1,
        0
      ],
      "type": "VEC3"
    },
    {
      "bufferView": 3,
      "byteOffset": 26256,
      "componentType": 5126,
      "count": 1172,
      "max": [
        0,
        0,
        1,
        1
      ],
      "min": [
        -1.892353083121634e-07,
        -2.3477628928958438e-05,
        -1,
        -1
      ],
      "type": "VEC4"
    },
    {
      "bufferView": 1,
      "byteOffset": 13128,
      "componentType": 5126,
      "count": 1172,
      "max": [
        0.96727997064590454,
        0.94172000885009766
      ],
      "min": [
        0.0060200002044439316,
        0.077040001749992371
      ],
      "type": "VEC2"
    },
    {
      "bufferView": 0,
      "byteOffset": 17544,
      "componentType": 5125,
      "count": 1758,
      "max": [
        1171
      ],
      "min": [
        0
      ],
      "type": "SCALAR"
    },
    {
      "bufferView": 2,
      "byteOffset": 67512,
      "componentType": 5126,
      "count": 318,
      "max": [
        0.93314999341964722,
        0.76071000099182129,
        -1.0014400482177734
      ],
      "min": [
        -0.91377002000808716,
        -0.2605699896812439,
        -1.4361799955368042
      ],
      "type": "VEC3"
    },
    {
      "bufferView": 2,
      "byteOffset": 71328,
      "componentType": 5126,
      "count": 318,
      "max": [
        0.016730001196265221,
        0.99997216463088989,
        0
      ],
      "min": [
        -0.016720004379749298,
        -0.99987262487411499,
        -1
      ],
      "type": "VEC3"
    },
    {
      "bufferView": 3,
      "byteOffset": 45008,
      "componentType": 5126,
      "count": 318,
      "max": [
        1,
        0.0001117430001613684,
        1.8648826483058656e-07,
        1
      ],
      "min": [
        0,
        -0.00016269515617750585,
        -3.5671373410650631e-08,
        -1
      ],
      "type": "VEC4"
    },
    {
      "bufferView": 1,
      "byteOffset": 22504,
      "componentType": 5126,
      "count": 318,
      "max": [
        0.96963000297546387,
        0.93867999315261841
      ],
      "min": [
        0.034860000014305115,
        0.08199000358581543
      ],
      "type": "VEC2"
    },
    {
      "bufferView": 0,
      "byteOffset": 24576,
      "componentType": 5125,
      "count": 480,
      "max": [
        317
      ],
      "min": [
        0
      ],
      "type": "SCALAR"
    },
    {
      "bufferView": 2,
      "byteOffset": 75144,
      "componentType": 5126,
      "count": 8,
      "max": [
        0.97119998931884766,
        0.75668001174926758,
        -0.56628000736236572
      ],
      "min": [
        -0.97509998083114624,
        -0.94204002618789673,
        -0.89722001552581787
      ],
      "type": "VEC3"
    },
    {
      "bufferView": 2,
      "byteOffset": 75240,
      "componentType": 5126,
      "count": 8,
      "max": [
        0,
        0.21032051742076874,
        0.97763246297836304
      ],
      "min": [
        0,
        -0.67389088869094849,
        0.73883092403411865
      ],
      "type": "VEC3"
    },
    {
      "bufferView": 3,
      "byteOffset": 50096,
      "componentType": 5126,
      "count": 8,
      "max": [
        0,
        0,
        0,
        1
      ],
      "min": [
        0,
        0,
        0,
        1
      ],
      "type": "VEC4"
    },
    {
      "bufferView": 1,
      "byteOffset": 25048,
      "componentType": 5126,
      "count": 8,
      "max": [
        0,
        0
      ],
      "min": [
        0,
        0
      ],
      "type": "VEC2"
    },
    {
      "bufferView": 0,
      "byteOffset": 26496,
      "componentType": 5125,
      "count": 12,
      "max": [
        7
      ],
      "min": [
        0
      ],
      "type": "SCALAR"
    },
    {
      "bufferView": 2,
      "byteOffset": 75336,
      "componentType": 5126,
      "count": 424,
      "max": [
        1.0206700563430786,
        0.87072998285293579,
        1.9902000427246094
      ],
      "min": [
        -1.0206700563430786,
        -1.1292699575424194,
        -0.0098000001162290573
      ],
      "type": "VEC3"
    },
    {
      "bufferView": 2,
      "byteOffset": 80424,
      "componentType": 5126,
      "count": 424,
      "max": [
        1,
        1,
        1
      ],
      "min": [
        -1,
        -1,
        -1
      ],
      "type": "VEC3"
    },
    {
      "bufferView": 3,
      "byteOffset": 50224,
      "componentType": 5126,
      "count": 424,
      "max": [
        0,
        0,
        0,
        1
      ],
      "min": [
        0,
        0,
        0,
        1
      ],
      "type": "VEC4"
    },
    {
      "bufferView": 1,
      "byteOffset": 25112,
      "componentType": 5126,
      "count": 424,
      "max": [
        0,
        0
      ],
      "min": [
        0,
        0
      ],
      "type": "VEC2"
    },
    {
      "bufferView": 0,
      "byteOffset": 26544,
      "componentType": 5125,
      "count": 864,
      "max": [
        423
      ],
      "min": [
        0
      ],
      "type": "SCALAR"
    },
    {
      "bufferView": 2,
      "byteOffset": 85512,
      "componentType": 5126,
      "count": 16,
      "max": [
        0.99061000347137451,
        -0.31823998689651489,
        1.9241900444030762
      ],
      "min": [
        -0.99061000347137451,
        -0.31823998689651489,
        0.03392999991774559
      ],
      "type": "VEC3"
    },
    {
      "bufferView": 2,
      "byteOffset": 85704,
      "componentType": 5126,
      "count": 16,
      "max": [
        0,
        1,
        0
      ],
      "min": [
        0,
        1,
        0
      ],
      "type": "VEC3"
    },
    {
      "bufferView": 3,
      "byteOffset": 57008,
      "componentType": 5126,
      "count": 16,
      "max": [
        -0.99994403123855591,
        0,
        0.00020340037008281797,
        1
      ],
      "min": [
        -1,
        0,
        -0.01058079581707716,
        1
      ],
      "type": "VEC4"
    },
    {
      "bufferView": 1,
      "byteOffset": 28504,
      "componentType": 5126,
      "count": 16,
      "max": [
        0.99699997901916504,
        0.9724000096321106
      ],
      "min": [
        0.007890000008046627,
        0.02759999968111515
      ],
      "type": "VEC2"
    },
    {
      "bufferView": 0,
      "byteOffset": 30000,
      "componentType": 5125,
      "count": 42,
      "max": [
        15
      ],
      "min": [
        0
      ],
      "type": "SCALAR"
    }
  ],
  "asset": {
    "extras": {
      "author": "lazercar (https://sketchfab.com/lazercar)",
      "license": "CC-BY-SA-4.0 (http://creativecommons.org/licenses/by-sa/4.0/)",
      "source": "https://sketchfab.com/models/c144fe98db1a4c0a8e5759772dd37cbc",
      "title": "Laptop"
    },
    "generator": "Sketchfab-3.34.3",
    "version": "2.0"
  },
  "bufferViews": [
    {
      "buffer": 0,
      "byteLength": 30168,
      "byteOffset": 0,
      "name": "floatBufferViews",
      "target": 34963
    },
    {
      "buffer": 0,
      "byteLength": 28632,
      "byteOffset": 30168,
      "byteStride": 8,
      "name": "floatBufferViews",
      "target": 34962
    },
    {
      "buffer": 0,
      "byteLength": 85896,
      "byteOffset": 58800,
      "byteStride": 12,
      "name": "floatBufferViews",
      "target": 34962
    },
    {
      "buffer": 0,
      "byteLength": 57264,
      "byteOffset": 144696,
      "byteStride": 16,
      "name": "floatBufferViews",
      "target": 34962
    }
  ],
  "buffers": [
    {
      "byteLength": 201960,
      "uri": "scene.bin"
    }
  ],
  "extensionsRequired": [
    "KHR_materials_pbrSpecularGlossiness"
  ],
  "extensionsUsed": [
    "KHR_materials_pbrSpecularGlossiness"
  ],
  "images": [
    {
      "uri": "textures/Material.002_diffuse.png"
    },
    {
      "uri": "textures/Material.001_diffuse.jpeg"
    },
    {
      "uri": "textures/Material.001_emissive.jpeg"
    },
    {
      "uri": "textures/Material.005_diffuse.jpeg"
    }
  ],
  "materials": [
    {
      "doubleSided": true,
      "extensions": {
        "KHR_materials_pbrSpecularGlossiness": {
          "diffuseFactor": [
            0.0096157397000000006,
            0.0096157397000000006,
            0.0096157397000000006,
            1
          ],
          "glossinessFactor": 0.76048018289999997,
          "specularFactor": [
            0,
            0,
            0
          ]
        }
      },
      "name": "Material"
    },
    {
      "doubleSided": true,
      "extensions": {
        "KHR_materials_pbrSpecularGlossiness": {
          "diffuseFactor": [
            1,
            1,
            1,
            1
          ],
          "diffuseTexture": {
            "index": 0,
            "texCoord": 0
          },
          "glossinessFactor": 0.14462652440000001,
          "specularFactor": [
            0.034218421399999997,
            0.028773271699999999,
            0.028773271699999999
          ]
        }
      },
      "name": "Material.002"
    },
    {
      "doubleSided": true,
      "extensions": {
        "KHR_materials_pbrSpecularGlossiness": {
          "diffuseFactor": [
            0.015876293499999999,
            0.014258268399999999,
            0.014258268399999999,
            1
          ],
          "glossinessFactor": 0.077553353700000049,
          "specularFactor": [
            0.27119792869999998,
            0.2608304099,
            0.2608304099
          ]
        }
      },
      "name": "Material.004"
    },
    {
      "doubleSided": true,
      "extensions": {
        "KHR_materials_pbrSpecularGlossiness": {
          "diffuseFactor": [
            1,
            1,
            1,
            1
          ],
          "diffuseTexture": {
            "index": 3,
            "texCoord": 0
          },
          "glossinessFactor": 0.87633384150000004,
          "specularFactor": [
            1,
            1,
            1
          ]
        }
      },
      "name": "Material.005"
    },
    {
      "doubleSided": true,
      "extensions": {
        "KHR_materials_pbrSpecularGlossiness": {
          "diffuseFactor": [
            0.051766289799999997,
            0.050868250499999997,
            0.050868250499999997,
            1
          ],
          "glossinessFactor": 0.92244664629999995,
          "specularFactor": [
            0,
            0,
            0
          ]
        }
      },
      "name": "Material.008"
    },
    {
      "doubleSided": true,
      "emissiveFactor": [
        0,
        1,
        1
      ],
      "extensions": {
        "KHR_materials_pbrSpecularGlossiness": {
          "diffuseFactor": [
            0,
            0.4987199531,
            1,
            1
          ],
          "glossinessFactor": 0.40000000000000002,
          "specularFactor": [
            0,
            0.5830405018,
            1
          ]
        }
      },
      "name": "material"
    },
    {
      "doubleSided": true,
      "emissiveFactor": [
        0.10000000000000001,
        0.10000000000000001,
        0.10000000000000001
      ],
      "emissiveTexture": {
        "index": 2,
        "texCoord": 0
      },
      "extensions": {
        "KHR_materials_pbrSpecularGlossiness": {
          "diffuseFactor": [
            1,
            1,
            1,
            1
          ],
          "diffuseTexture": {
            "index": 1,
            "texCoord": 0
          },
          "glossinessFactor": 0.93121189019999995,
          "specularFactor": [
            0.13788420200000001,
            0.13788420200000001,
            0.13788420200000001
          ]
        }
      },
      "name": "Material.001"
    }
  ],
  "meshes": [
    {
      "name": "Cube_0",
      "primitives": [
        {
          "attributes": {
            "NORMAL": 1,
            "POSITION": 0,
            "TANGENT": 2,
            "TEXCOORD_0": 3
          },
          "indices": 4,
          "material": 0,
          "mode": 4
        }
      ]
    },
    {
      "name": "Cube_1",
      "primitives": [
        {
          "attributes": {
            "NORMAL": 6,
            "POSITION": 5,
            "TANGENT": 7,
            "TEXCOORD_0": 8
          },
          "indices": 9,
          "material": 1,
          "mode": 4
        }
      ]
    },
    {
      "name": "Cube_2",
      "primitives": [
        {
          "attributes": {
            "NORMAL": 11,
            "POSITION": 10,
            "TANGENT": 12,
            "TEXCOORD_0": 13
          },
          "indices": 14,
          "material": 2,
          "mode": 4
        }
      ]
    },
    {
      "name": "Cube_3",
      "primitives": [
        {
          "attributes": {
            "NORMAL": 16,
            "POSITION": 15,
            "TANGENT": 17,
            "TEXCOORD_0": 18
          },
          "indices": 19,
          "material": 3,
          "mode": 4
        }
      ]
    },
    {
      "name": "Cube_4",
      "primitives": [
        {
          "attributes": {
            "NORMAL": 21,
            "POSITION": 20,
            "TANGENT": 22,
            "TEXCOORD_0": 23
          },
          "indices": 24,
          "material": 4,
          "mode": 4
        }
      ]
    },
    {
      "name": "Cube.002_0",
      "primitives": [
        {
          "attributes": {
            "NORMAL": 26,
            "POSITION": 25,
            "TANGENT": 27,
            "TEXCOORD_0": 28
          },
          "indices": 29,
          "material": 0,
          "mode": 4
        }
      ]
    },
    {
      "name": "Cube.002_1",
      "primitives": [
        {
          "attributes": {
            "NORMAL": 31,
            "POSITION": 30,
            "TANGENT": 32,
            "TEXCOORD_0": 33
          },
          "indices": 34,
          "material": 1,
          "mode": 4
        }
      ]
    },
    {
      "name": "Cube.002_2",
      "primitives": [
        {
          "attributes": {
            "NORMAL": 36,
            "POSITION": 35,
            "TANGENT": 37,
            "TEXCOORD_0": 38
          },
          "indices": 39,
          "material": 5,
          "mode": 4
        }
      ]
    },
    {
      "name": "Cube.001_0",
      "primitives": [
        {
          "attributes": {
            "NORMAL": 41,
            "POSITION": 40,
            "TANGENT": 42,
            "TEXCOORD_0": 43
          },
          "indices": 44,
          "material": 0,
          "mode": 4
        }
      ]
    },
    {
      "name": "Cube.001_1",
      "primitives": [
        {
          "attributes": {
            "NORMAL": 46,
            "POSITION": 45,
            "TANGENT": 47,
            "TEXCOORD_0": 48
          },
          "indices": 49,
          "material": 6,
          "mode": 4
        }
      ]
    }
  ],
  "nodes": [
    {
      "children": [
        1
      ],
      "name": "RootNode (gltf orientation matrix)",
      "rotation": [
        -0.70710678118654746,
        -0,
        -0,
        0.70710678118654757
      ]
    },
    {
      "children": [
        2
      ],
      "name": "RootNode (model correction matrix)"
    },
    {
      "children": [
        3,
        16
      ],
      "name": "Root"
    },
    {
      "children": [
        4,
        5,
        6,
        7,
        8,
        9,
        13
      ],
      "matrix": [
        1.9553399999999999,
        0,
        0,
        0,
        0,
        1.39194,
        -0.0080600000000000012,
        0,
        0,
        -0.00020000000000000006,
        -0.034170000000000013,
        0,
        0,
        -0.41004000000000002,
        0.15275000000000002,
        1
      ],
      "name": "Cube"
    },
    {
      "mesh": 0,
      "name": "Cube_0"
    },
    {
      "mesh": 1,
      "name": "Cube_1"
    },
    {
      "mesh": 2,
      "name": "Cube_2"
    },
    {
      "mesh": 3,
      "name": "Cube_3"
    },
    {
      "mesh": 4,
      "name": "Cube_4"
    },
    {
      "children": [
        10,
        11,
        12
      ],
      "name": "Cube.002"
    },
    {
      "mesh": 5,
      "name": "Cube.002_0"
    },
    {
      "mesh": 6,
      "name": "Cube.002_1"
    },
    {
      "mesh": 7,
      "name": "Cube.002_2"
    },
    {
      "children": [
        14,
        15
      ],
      "matrix": [
        -0.97357999999999989,
        0,
        0,
        0,
        0,
        -0.0052100000000000002,
        -0.13349000000000003,
        0,
        0,
        0.53372000000000008,
        -34.547579999999996,
        0,
        -0.00041000000000000015,
        1.00017,
        -1.1990000000000001,
        1
      ],
      "name": "Cube.001"
    },
    {
      "mesh": 8,
      "name": "Cube.001_0"
    },
    {
      "mesh": 9,
      "name": "Cube.001_1"
    },
    {
      "children": [
        17
      ],
      "matrix": [
        1,
        0,
        0,
        0,
        0,
        1,
        0,
        0,
        0,
        0,
        1,
        0,
        -1.45058,
        0.08970000000000003,
        3.1239800000000004,
        1
      ],
      "name": "Sun"
    },
    {
      "name": "Sun"
    }
  ],
  "samplers": [
    {
      "magFilter": 9729,
      "minFilter": 9987,
      "wrapS": 10497,
      "wrapT": 10497
    }
  ],
  "scene": 0,
  "scenes": [
    {
      "name": "OSG_Scene",
      "nodes": [
        0
      ]
    }
  ],
  "textures": [
    {
      "sampler": 0,
      "source": 0
    },
    {
      "sampler": 0,
      "source": 1
    },
    {
      "sampler": 0,
      "source": 2
    },
    {
      "sampler": 0,
      "source": 3
    }
  ]
}

